<svg width="1894px" height="1796px" viewBox="0 0 1894 1796" version="1.1" xmlns="http://www.w3.org/2000/svg" xmlns:xlink="http://www.w3.org/1999/xlink">
    <g id="Page-1" stroke="none" stroke-width="1" fill="none" fill-rule="evenodd">
        <g id="pattern" fill="#F4F7FC">
            <path d="M258.044276,54.8103181 C81.4343966,33.7214939 234.69704,236.648576 234.69704,383.795976 C234.69704,530.943375 87.064958,536.914245 25.7681506,732.787657 C-35.5286567,928.661069 9.23304668,1141.39436 212.150565,1108.39436 C415.068084,1075.39436 668.838071,714.865964 668.838071,552.238447 C668.838071,389.61093 434.654155,75.8991423 258.044276,54.8103181 Z M1641.43509,1002.34803 C1540.94009,1005.95803 1488.43509,1053.34803 1425.43509,1234.34803 C1362.43509,1415.34803 1501.17009,1323.34803 1501.17009,1417.34803 C1501.17009,1511.34803 1383.00009,1597.29803 1371.00009,1646.29803 C1359.00009,1695.29803 1366.43509,1823.34803 1525.43509,1790.34803 C1684.43509,1757.34803 1913.17009,1586.25003 1892.17009,1538.25003 C1871.17009,1490.25003 1768.77709,1437.64903 1709.17009,1310.25003 C1649.56309,1182.85003 1741.93109,998.738029 1641.43509,1002.34803 Z M656.158,966.602 C585.123,1037.781 579.043,1108.247 656.409,1283.588 C733.776,1458.929 515.499,1470.114 579.607,1538.861 C643.715,1607.609 850.397,1434.818 875.037,1478.838 C899.679,1522.858 1014.957,1754.593 1108.736,1622.021 C1202.515,1489.449 1251.97978,1345.91296 1203.88578,1325.13096 C1155.79078,1304.34696 1065.73374,1248.38692 1063.12174,1201.59892 C1060.51074,1154.80992 1135.25547,1035.746 1020.75847,966.602 C906.26147,897.458 727.194,895.424 656.158,966.602 Z M1418.2,548 C1525.9,389.473 1603.743,584.197 1628.072,493.4 C1652.402,402.603 1472.727,296.225 1497,252 C1521.273,207.775 1580.323,9.882 1418.2,0.606 C1256.077,-8.671 1378.75887,192.858481 1308,234.72016 C1237.24113,276.581839 1111.3837,134.153797 966.731893,198.564944 C822.08009,262.976091 881.365982,468.326583 924.399559,548 C967.433135,627.673417 1310.5,706.527 1418.2,548 Z" id="Shape"></path>
        </g>
    </g>
</svg>